<svg width="40" height="40" viewBox="0 0 40 40" fill="none" xmlns="http://www.w3.org/2000/svg">
<path d="M32.5 37.5H13.75C13.0872 37.4993 12.4517 37.2357 11.983 36.767C11.5143 36.2983 11.2507 35.6628 11.25 35V27.5H13.75V35H32.5V7.5H21.25V5H32.5C33.1628 5.00066 33.7983 5.26427 34.267 5.73296C34.7357 6.20166 34.9993 6.83716 35 7.5V35C34.9993 35.6628 34.7357 36.2983 34.267 36.767C33.7983 37.2357 33.1628 37.4993 32.5 37.5Z" fill="white"/>
<path d="M21.25 12.5H30V15H21.25V12.5ZM20 18.75H30V21.25H20V18.75ZM18.75 25H30V27.5H18.75V25ZM11.25 23.75C9.5929 23.7483 8.00415 23.0893 6.83241 21.9176C5.66067 20.7458 5.00165 19.1571 5 17.5V3.75H7.5V17.5C7.5 18.4946 7.89509 19.4484 8.59835 20.1517C9.30161 20.8549 10.2554 21.25 11.25 21.25C12.2446 21.25 13.1984 20.8549 13.9017 20.1517C14.6049 19.4484 15 18.4946 15 17.5V6.25C15 5.91848 14.8683 5.60054 14.6339 5.36612C14.3995 5.1317 14.0815 5 13.75 5C13.4185 5 13.1005 5.1317 12.8661 5.36612C12.6317 5.60054 12.5 5.91848 12.5 6.25V18.75H10V6.25C10 5.25544 10.3951 4.30161 11.0983 3.59835C11.8016 2.89509 12.7554 2.5 13.75 2.5C14.7446 2.5 15.6984 2.89509 16.4017 3.59835C17.1049 4.30161 17.5 5.25544 17.5 6.25V17.5C17.4983 19.1571 16.8393 20.7458 15.6676 21.9176C14.4958 23.0893 12.9071 23.7483 11.25 23.75Z" fill="white"/>
</svg>
