<svg width="40" height="40" viewBox="0 0 40 40" fill="none" xmlns="http://www.w3.org/2000/svg">
<path d="M20 35C11.73 35 5 28.2717 5 20C5 11.7283 11.73 5 20 5C28.27 5 35 11.7283 35 20C35 28.2717 28.27 35 20 35ZM20 8.33333C13.5667 8.33333 8.33333 13.5683 8.33333 20C8.33333 26.4317 13.5667 31.6667 20 31.6667C26.4333 31.6667 31.6667 26.4317 31.6667 20C31.6667 13.5683 26.4333 8.33333 20 8.33333ZM20 10.8333C14.945 10.8333 10.8333 14.9467 10.8333 20C10.8333 25.0533 14.945 29.1667 20 29.1667C25.055 29.1667 29.1667 25.0533 29.1667 20C29.1667 14.9467 25.055 10.8333 20 10.8333ZM27.4833 19.8367C25.7716 19.5193 24.0141 19.5431 22.3117 19.9067C22.0986 19.3627 21.8668 18.8263 21.6167 18.2983C23.0994 17.4089 24.3928 16.2367 25.4233 14.8483C26.7093 16.1952 27.4442 17.9749 27.4833 19.8367V19.8367ZM24.15 13.76C23.2635 14.9836 22.145 16.0211 20.8583 16.8133C20.0559 15.3819 19.1111 14.0351 18.0383 12.7933C18.6761 12.6081 19.3359 12.5095 20 12.5C21.535 12.5 22.96 12.9667 24.15 13.76V13.76ZM16.415 13.4533C17.56 14.7167 18.545 16.1033 19.375 17.575C17.2748 18.4713 14.9559 18.7248 12.7117 18.3033C12.9539 17.2802 13.4088 16.3196 14.0469 15.484C14.685 14.6484 15.4918 13.9565 16.415 13.4533ZM12.5 20C13.28 20.1067 14.06 20.2017 14.8317 20.2017C16.6609 20.1945 18.4687 19.8069 20.14 19.0633C20.345 19.4983 20.5367 19.9367 20.7133 20.385C18.2193 21.2832 16.054 22.9124 14.5 25.06C13.2192 23.6858 12.5049 21.8785 12.5 20V20ZM15.7467 26.165C17.1128 24.2257 19.044 22.7549 21.2767 21.9533C21.8048 23.6289 22.1381 25.3598 22.27 27.1117C21.5381 27.3583 20.7723 27.4893 20 27.5C18.4791 27.5 16.9948 27.0341 15.7467 26.165V26.165ZM23.8667 26.3933C23.7017 24.7267 23.3733 23.0883 22.8783 21.4983C24.3548 21.208 25.8737 21.2086 27.35 21.5C27.1374 22.5115 26.7184 23.4682 26.119 24.3102C25.5196 25.1522 24.7528 25.8614 23.8667 26.3933V26.3933Z" fill="white"/>
</svg>
