<svg width="40" height="40" viewBox="0 0 40 40" fill="none" xmlns="http://www.w3.org/2000/svg">
<path d="M35.9223 6.66667C35.7708 6.65106 35.6182 6.65106 35.4667 6.66667H4.35561C4.15622 6.66974 3.95814 6.69964 3.76672 6.75556L19.8223 22.7444L35.9223 6.66667Z" fill="white"/>
<path d="M37.5666 8.21111L21.3889 24.3222C20.9725 24.7361 20.4093 24.9684 19.8222 24.9684C19.2351 24.9684 18.6719 24.7361 18.2555 24.3222L2.22219 8.33333C2.1729 8.51449 2.14676 8.70116 2.14441 8.88889V31.1111C2.14441 31.7005 2.37854 32.2657 2.79528 32.6825C3.21203 33.0992 3.77726 33.3333 4.36663 33.3333H35.4777C36.0671 33.3333 36.6323 33.0992 37.0491 32.6825C37.4658 32.2657 37.7 31.7005 37.7 31.1111V8.88889C37.6911 8.65739 37.6461 8.42871 37.5666 8.21111V8.21111ZM5.88885 31.1111H4.34441V29.5222L12.4222 21.5111L13.9889 23.0778L5.88885 31.1111ZM35.4555 31.1111H33.9L25.8 23.0778L27.3666 21.5111L35.4444 29.5222L35.4555 31.1111Z" fill="white"/>
</svg>
