<svg xmlns="http://www.w3.org/2000/svg" viewBox="0 0 883.5 292.69"><defs><style>.cls-1{fill:#fff;}</style></defs><title>Asset 2</title><g id="Layer_2" data-name="Layer 2"><g id="Layer_1-2" data-name="Layer 1"><path class="cls-1" d="M250.63,72a56.87,56.87,0,0,0-26.28,21.4,91.58,91.58,0,0,0-13.26,32.26A135.5,135.5,0,0,0,209.57,146a77.48,77.48,0,0,0,2.61,20.09,46.3,46.3,0,0,0,4.78,11,38.27,38.27,0,0,0,8,9.66,31.21,31.21,0,0,0,10.64,6.09A21.2,21.2,0,0,0,248,193q5.21-.85,10.64-6.08A55.43,55.43,0,0,0,268,175.12a49,49,0,0,0,5.54-13.47q1.62-6.84-1-11.19c-.15-.43-.87-.72-2.17-.87q-3.48-.43-6.74-1.08a56.69,56.69,0,0,1-6.52-1.74A26.74,26.74,0,0,1,246.07,139a33,33,0,0,1-6.3-11.74,43.81,43.81,0,0,1-1.74-13.9,46.49,46.49,0,0,1,2.83-14.56,43.23,43.23,0,0,1,7.71-12.92,25.55,25.55,0,0,1,12.93-8.15,17.57,17.57,0,0,1,7.93-.33,23.55,23.55,0,0,1,7.17,2.72,24.83,24.83,0,0,1,6.08,5,48.54,48.54,0,0,1,4.89,6.51,93,93,0,0,1,9.34,23.68,113.74,113.74,0,0,1,3.37,26.62,117.35,117.35,0,0,1-2.93,26.94,91.81,91.81,0,0,1-9.46,24.77,76.92,76.92,0,0,1-16.07,20,61.79,61.79,0,0,1-22.71,12.71,48.53,48.53,0,0,1-18.79.66,54.49,54.49,0,0,1-17.38-6,59.45,59.45,0,0,1-14.66-11.3,65.15,65.15,0,0,1-10.87-15.31,85.36,85.36,0,0,1-8-23,117.55,117.55,0,0,1-2.17-24.66A123.09,123.09,0,0,1,180.13,122a114.17,114.17,0,0,1,7.72-23A68.64,68.64,0,0,1,203.6,76.7a79,79,0,0,1,23.14-14.88A133.52,133.52,0,0,1,241,57.37q7.28-1.84,14.45-3.7t14.33-4.13a81.11,81.11,0,0,0,13.69-5.75,16,16,0,0,0,4.35-2.94,10.86,10.86,0,0,0,2.82-4.23q2.17-6.73-.43-11.19a18.61,18.61,0,0,0-7.5-7.06,37.14,37.14,0,0,0-11-3.7,48.29,48.29,0,0,0-10.65-.86,98.61,98.61,0,0,0-24.76,4.78q-11.75,3.9-23.47,8.25Q188.5,35.75,164.38,44a433.31,433.31,0,0,1-49.31,13.69q-6.52,1.53-15.1,2.93t-18.14,2.5q-9.57,1.1-19.67,1.52a156.11,156.11,0,0,1-19.55-.32A111.44,111.44,0,0,1,24.8,61.49a50.35,50.35,0,0,1-14.67-6,20.14,20.14,0,0,1-6.19-5.65A21.54,21.54,0,0,1,.46,42.48a14.72,14.72,0,0,1,.11-7.71,15.08,15.08,0,0,1,4.78-7.06q5-4.12,14.12-4.78a109.23,109.23,0,0,1,19.34.44Q49,24.45,58.69,26.3T74.44,29a251,251,0,0,0,56.16-.21,318,318,0,0,0,55.51-11.74q14.34-4.33,28.24-9A181.83,181.83,0,0,1,242.81,1a107.2,107.2,0,0,1,13.58-1,90.72,90.72,0,0,1,14.78,1,61.49,61.49,0,0,1,14,3.8A38.34,38.34,0,0,1,296.8,12,26.24,26.24,0,0,1,304,23q2.28,6.63,1,15.75a21.88,21.88,0,0,1-6.74,12.28A53.61,53.61,0,0,1,285.07,60a113.58,113.58,0,0,1-16.84,6.63ZM34.25,31.62a2.58,2.58,0,0,0-2.18-3.26,30,30,0,0,0-6-.32,39.82,39.82,0,0,0-5.76.54Q14.7,29.67,12.52,32a9.34,9.34,0,0,0-2.61,4.67q-.44,2.82,2.18,3.47h.65a2.4,2.4,0,0,0,2.6-2.17A4.24,4.24,0,0,1,17.73,35a16.33,16.33,0,0,1,4.35-1.41,21.41,21.41,0,0,1,4.78-.33,17.25,17.25,0,0,1,3.91.54C32.51,34.23,33.67,33.5,34.25,31.62Zm11.29,2.83a2.9,2.9,0,0,0,.66-2.18,3.13,3.13,0,0,0-1.09-2.17,7.1,7.1,0,0,0-2.17-.43,5.14,5.14,0,0,0-2,.86,4.67,4.67,0,0,0-.43,2.39,2.53,2.53,0,0,0,2.82,2.61A5,5,0,0,0,45.54,34.45ZM210,181.09a1.9,1.9,0,0,0-.87,2.61,37.23,37.23,0,0,0,4.78,7,26.5,26.5,0,0,0,7.6,7,1.25,1.25,0,0,0,.87.43,1.95,1.95,0,0,0,1.09-3.48,37,37,0,0,1-6.95-6.51,17,17,0,0,1-3.91-5.87C212.18,181,211.31,180.66,210,181.09Zm61.05-45a3.78,3.78,0,0,0,2.6-.65q.87-1.31.44-4.78t-1.31-7.5c-.58-2.67-1.26-5.24-2.06-7.71a31.63,31.63,0,0,0-2.06-5.21q-2.4-4.35-5.65-.65a34.69,34.69,0,0,0-3.15,4.67,31.65,31.65,0,0,0-2.5,5.75,18.62,18.62,0,0,0,.33,7.72,8.76,8.76,0,0,0,4.88,6A15.21,15.21,0,0,0,271.06,136.12Zm.43-48.45q-1.31,2.83,1.09,3.91a17.79,17.79,0,0,1,3.26,3.26,49.4,49.4,0,0,1,3.69,5.22,50.29,50.29,0,0,1,3,7,16.22,16.22,0,0,1,1.31,3.8c.28,1.38.57,2.79.86,4.24a2.61,2.61,0,0,0,2.83,2.39H288c1.74-.15,2.46-1.16,2.18-3-.3-1.6-.62-3.15-1-4.68s-.76-3-1.2-4.45-1.16-3.07-1.73-4.45a43.92,43.92,0,0,0-2-4,49.58,49.58,0,0,0-4.56-6.09,16.84,16.84,0,0,0-4.35-4.12C273.81,85.58,272.5,85.93,271.49,87.67Z"/><path class="cls-1" d="M350.79,180.88c1.16.58,1.63,1.74,1.41,3.47a21.48,21.48,0,0,1-1.52,5.54,55.67,55.67,0,0,1-2.61,5.54,32.14,32.14,0,0,1-2.06,3.48,67.41,67.41,0,0,1-8.47,11.51L328,220.85a46.56,46.56,0,0,0-8.48,12,51.82,51.82,0,0,0-2.28,4.78c-.65,1.59-1.34,3.19-2.06,4.78q-3.48,9.12-6.41,17.92a65.16,65.16,0,0,1-8.36,16.62,33.75,33.75,0,0,1-4.57,5.65,38.93,38.93,0,0,1-5.43,4.57A23.81,23.81,0,0,1,280.07,292a32.86,32.86,0,0,1-11.62.33,17.27,17.27,0,0,1-9.67-4.78,15.38,15.38,0,0,1-4.67-9.56,20.31,20.31,0,0,1,1.74-10,36.49,36.49,0,0,1,5.21-8.69,60.36,60.36,0,0,1,9.67-10A138.53,138.53,0,0,0,281.05,240a50.67,50.67,0,0,0,10.75-15.64,101.29,101.29,0,0,0,6-18.25c.43-2.17.87-4.82,1.3-7.93s.83-6.23,1.2-9.34.65-6,.87-8.69.39-4.67.54-6q.87-7.6,1.74-15t2.17-15a59.61,59.61,0,0,1,1.52-7.93,8.58,8.58,0,0,1,4.78-6,8.79,8.79,0,0,1,8.47,0,15.48,15.48,0,0,1,6.3,5.86,39.94,39.94,0,0,1,4.78,14.56,84.63,84.63,0,0,1-.65,27.7q-2.61,14-5.86,27.26a5.92,5.92,0,0,0-.22,3.48,1.47,1.47,0,0,0,1.41,1.09,5.26,5.26,0,0,0,2.39-.76,26.91,26.91,0,0,0,2.93-1.85,37.06,37.06,0,0,0,6.52-6.95q2.82-3.92,5.22-7.82a33,33,0,0,0,2.6-5,33.94,33.94,0,0,1,2.61-5C349.41,181.39,350.21,180.73,350.79,180.88Zm-61.27,72.34a41,41,0,0,0,.65-4.34c.15-1.45.08-2.1-.21-2a40.26,40.26,0,0,0-4.78,2.61,51.52,51.52,0,0,0-4.56,3.26l-7.28,6a30.87,30.87,0,0,0-6.19,6.85,27.42,27.42,0,0,0-2.72,5.86,7.58,7.58,0,0,0,.33,6.3,5.28,5.28,0,0,0,4.67,2.72,12.33,12.33,0,0,0,5.54-1,12.54,12.54,0,0,0,4.89-3.37,34.57,34.57,0,0,0,3.58-4.67,38.66,38.66,0,0,0,4.13-8.8A42.59,42.59,0,0,0,289.52,253.22Zm-.87,21.29c.59-.58.44-1-.43-1.3a.86.86,0,0,0-1.3.44,28.74,28.74,0,0,1-3.26,4.88,17.49,17.49,0,0,1-4.78,3.81,1.09,1.09,0,0,0-.44,1.3,1.26,1.26,0,0,0,.87.43h.44a15.11,15.11,0,0,0,5.32-4.12A46.62,46.62,0,0,0,288.65,274.51ZM323.42,92.89a9.69,9.69,0,0,1,5.75,4.56,12.41,12.41,0,0,1,1.85,7.17,1,1,0,0,1-.11.43,1.06,1.06,0,0,0-.11.44,11.15,11.15,0,0,1-4.45,7.49,13.37,13.37,0,0,1-8.37,2.94,9.73,9.73,0,0,1-8.79-4.13,10.82,10.82,0,0,1-1.63-9.78,12.07,12.07,0,0,1,6.19-7.71A12.53,12.53,0,0,1,323.42,92.89Zm-5.87,44.32a2.3,2.3,0,0,0,.65,2.82q2.39,1.74,3.8,6a20.42,20.42,0,0,1,1,8.58,2.05,2.05,0,0,0,1.74,2.17h.22a1.72,1.72,0,0,0,1.95-1.95,25.55,25.55,0,0,0-1.41-10.76q-1.85-5.1-5.11-7.28C319.36,135.9,318.42,136.05,317.55,137.21Zm7.6,78a1,1,0,0,0-.65-1.3,4.1,4.1,0,0,1-3-4,29,29,0,0,1,.22-6.19c.29-.72,0-1.09-.87-1.09-.44-.14-.8.08-1.09.65-.72,4.35-.58,7.43.44,9.24a6.56,6.56,0,0,0,3.69,3.37h.44C324.57,215.86,324.86,215.64,325.15,215.2Zm1.74-114.06q1.51-2.39-1.08-3.91c-1.6-1-2.9-.65-3.92,1.09a2.93,2.93,0,0,0,3.26,4.24A3,3,0,0,0,326.89,101.14Z"/><path class="cls-1" d="M404.45,184.14a1.14,1.14,0,0,1,.76,1.08,8.17,8.17,0,0,1,0,1.85,9.75,9.75,0,0,1-.43,2,10.94,10.94,0,0,1-.55,1.42,47.2,47.2,0,0,1-4.34,9.88q-2.83,4.89-5.87,9.24-2.38,3.25-5.54,6.84a44.84,44.84,0,0,1-7,6.41,26.25,26.25,0,0,1-8.15,4.13,16.88,16.88,0,0,1-8.9.21,23.15,23.15,0,0,1-10.22-5.86,20.05,20.05,0,0,1-5.43-10.21,53.43,53.43,0,0,1-.43-17.93q1.31-9,3-17.7l2-9.78a12.09,12.09,0,0,0,.54-2.5,11,11,0,0,1,.54-2.5c.44-2.89.9-5.68,1.41-8.36s1.05-5.4,1.63-8.15q.44-2.61,1-5.21a18.48,18.48,0,0,1,1.74-4.89,9.51,9.51,0,0,1,3.15-3.59,9.24,9.24,0,0,1,5.21-1.3,12.82,12.82,0,0,1,8.26,2.93,15,15,0,0,1,4.34,7,32.1,32.1,0,0,1,1.31,9.46,95.6,95.6,0,0,1-.55,10.32,90.49,90.49,0,0,1-1.52,9.66c-.65,3-1.12,5.51-1.41,7.39l-.87,4.78-.87,4.78q-.44,3.92-.87,7.93a75.76,75.76,0,0,0-.43,8.15,18.77,18.77,0,0,0,.65,4.67,5.47,5.47,0,0,0,2.61,3.58,4.87,4.87,0,0,0,4.45.44,11.35,11.35,0,0,0,4-2.61,41.3,41.3,0,0,0,4.78-5.76c1.45-2.1,2.83-4.23,4.13-6.41q.64-1.31,1.41-2.82c.51-1,1-2,1.41-3,.44-.73,1.09-1.88,2-3.48S403.29,183.85,404.45,184.14Zm-25-88.86a9.78,9.78,0,0,1,5.75,4.45,10.76,10.76,0,0,1,1.63,7.06,2,2,0,0,1-.21.87,11.23,11.23,0,0,1-4.35,7.28,12.68,12.68,0,0,1-8,2.93,9.53,9.53,0,0,1-8.69-4,10.79,10.79,0,0,1-1.52-9.67,11.33,11.33,0,0,1,5.87-7.49A12.22,12.22,0,0,1,379.47,95.28ZM369,134.82a2,2,0,0,0,1.3,2.61c1.31.43,2.28,2,2.93,4.67a28.7,28.7,0,0,1,.55,9.23,2,2,0,0,0,1.74,2.17h.21c1.31,0,2-.57,2-1.74a37.69,37.69,0,0,0,.11-5,27.34,27.34,0,0,0-.76-5.43,17.61,17.61,0,0,0-2-4.78,6.06,6.06,0,0,0-3.47-2.83A1.89,1.89,0,0,0,369,134.82Zm9.12,79.3a1.06,1.06,0,0,0-.65-1.31q-5.2-2-5.21-10.21c0-.72-.3-1.08-.87-1.08s-.87.36-.87,1.08q0,9.57,6.3,12a.6.6,0,0,0,.43.22C377.58,214.77,377.87,214.55,378.16,214.12Zm3.7-110.8q1.51-2.4-.87-3.7-2.61-1.52-3.91.87a2.5,2.5,0,0,0,.87,3.91C379.54,105.42,380.84,105.05,381.86,103.32Z"/><path class="cls-1" d="M481.79,181.75a1.15,1.15,0,0,1,.76,1.08,10.16,10.16,0,0,1,0,2.07,9.38,9.38,0,0,1-.43,2.17,13.61,13.61,0,0,1-.54,1.41c-.3,1.16-.62,2.25-1,3.26a20.66,20.66,0,0,1-1.41,3,71.91,71.91,0,0,1-6.41,12.06,54.94,54.94,0,0,1-8.8,10.32,37.78,37.78,0,0,1-23.47,10.21,30,30,0,0,1-12.05-1.09,44.56,44.56,0,0,1-11.19-5.43,28,28,0,0,1-8.69-9.34,48.23,48.23,0,0,1-5.33-12.06A60.93,60.93,0,0,1,401,186.74a62.72,62.72,0,0,1,2.61-20.53,68.55,68.55,0,0,1,8.69-18.79,38.81,38.81,0,0,1,7.17-8.47,36.8,36.8,0,0,1,24.77-9.56,30.2,30.2,0,0,1,13.25,3.15A18.84,18.84,0,0,1,466.8,142a16.89,16.89,0,0,1,.33,13.14,32,32,0,0,1-8,12.17,35.16,35.16,0,0,1-13.15,7.93,22.49,22.49,0,0,1-14.77.22,16.32,16.32,0,0,0,.11,2,14.52,14.52,0,0,1,.11,1.74l.87,4.34c.29,1.45.57,2.9.87,4.35a36,36,0,0,0,3.26,8.91,15.37,15.37,0,0,0,6.73,6.51,25.37,25.37,0,0,0,11.73,2.39,21.68,21.68,0,0,0,10.65-3.8,27.81,27.81,0,0,0,8-8.14c.72-1.16,1.37-2.29,1.95-3.37s1.23-2.21,2-3.37c.29-.72.79-1.85,1.52-3.37S480.63,181.46,481.79,181.75Zm-46.27-34.11a51.47,51.47,0,0,0-3.91,7.6,12.51,12.51,0,0,0-.87,8.47c.57,2.18,1.59,3.19,3,3a10.23,10.23,0,0,0,4.67-2,27.72,27.72,0,0,0,4.67-4.13,18.62,18.62,0,0,0,2.82-3.69,38.82,38.82,0,0,0,3.15-7.5,11,11,0,0,0-.1-7.93,3.56,3.56,0,0,0-2.18-2.06,4.31,4.31,0,0,0-2.82.33,13.48,13.48,0,0,0-3,1.84,31.34,31.34,0,0,0-2.83,2.5A13.35,13.35,0,0,0,435.52,147.64Zm22.16,63.22a1,1,0,0,0-.87-1.74q-7.4,3.48-13.69-1.09a1,1,0,0,0-1.3.22c-.44.44-.37.87.21,1.31a10.47,10.47,0,0,0,4,2.17,17.1,17.1,0,0,0,4.67.65A15.42,15.42,0,0,0,457.68,210.86Zm-.87-72.78a1.25,1.25,0,0,0-.55,1.3,2.18,2.18,0,0,0,.55,1.3,11.47,11.47,0,0,1,3,5.22,6.8,6.8,0,0,1-.65,6.08,1.65,1.65,0,0,0,.43,2.61,3.68,3.68,0,0,0,1.09.43,2.08,2.08,0,0,0,1.74-.87,9.63,9.63,0,0,0,1.3-8.47,17.32,17.32,0,0,0-4.34-7.82C458.55,137,457.68,137.07,456.81,138.08Z"/><path class="cls-1" d="M574.13,183.27c1.15.14,1.55,1,1.19,2.49s-.62,2.65-.76,3.37a43.56,43.56,0,0,1-2.39,6.52,81.89,81.89,0,0,1-5.32,10.1,73.1,73.1,0,0,1-8.26,11,41.25,41.25,0,0,1-11.4,8.91,17.59,17.59,0,0,1-10.11,1.85,17.22,17.22,0,0,1-9.66-4,14.1,14.1,0,0,1-3.48-4,26.31,26.31,0,0,1-2.17-4.89c0,.15-.26.44-.76.87a13.2,13.2,0,0,1-1.85,1.3c-.73.44-1.41.87-2.06,1.31a8.52,8.52,0,0,0-1.2.87,57.1,57.1,0,0,1-5.21,3.36,25.08,25.08,0,0,1-6,2.5,20.61,20.61,0,0,1-6.3.76,15.28,15.28,0,0,1-6-1.41,16.84,16.84,0,0,1-5.87-4.34,27.27,27.27,0,0,1-6.08-10.54,46.59,46.59,0,0,1-2-11.95,65.13,65.13,0,0,1,.76-12.38c.65-4.13,1.42-8.08,2.28-11.84q1.31-6.74,3.37-14.34a58.76,58.76,0,0,1,5.76-14A36.17,36.17,0,0,1,500,134q5.65-4.35,14.12-4.56a24.5,24.5,0,0,1,10.21,1.3,7.85,7.85,0,0,1,3.15,2,3.87,3.87,0,0,0,3.15,1.3,3.18,3.18,0,0,0,2.39-1.74,4,4,0,0,1,2.61-2,8.35,8.35,0,0,1,6.84,1.63,18,18,0,0,1,4.68,5.32,33.38,33.38,0,0,1,4.45,11.08,65.93,65.93,0,0,1,1.3,12,114.92,114.92,0,0,1-.43,12.16q-.54,6.09-1.2,11.95c-.29,2.76-.65,5.43-1.08,8s-.8,5.29-1.09,8a21.24,21.24,0,0,0-.11,3.69c.07,1.31.11,2.54.11,3.7,0,1.59.33,2.6,1,3a3,3,0,0,0,2.39.32,10.57,10.57,0,0,0,2.93-1.19,11.47,11.47,0,0,0,2.39-1.74,35.62,35.62,0,0,0,4.89-6.08c1.37-2.17,2.72-4.42,4-6.74a32.26,32.26,0,0,0,2.06-3.91c.66-1.44,1.27-2.78,1.85-4a19.06,19.06,0,0,1,1.74-3A2.33,2.33,0,0,1,574.13,183.27Zm-63.88,28.89q.87,0,.87-1.08-.44-.87-1.08-.66a3.91,3.91,0,0,1-2.83-.65,8.38,8.38,0,0,1-2.71-3.91,18.7,18.7,0,0,1-1.2-5c0-.57-.36-.86-1.09-.86q-.87.44-.87,1.08a41.58,41.58,0,0,0,1.42,5.43,9.68,9.68,0,0,0,3.15,4.78,6.14,6.14,0,0,0,3.26,1.09A1.67,1.67,0,0,0,510.25,212.16ZM527,155.89a68.08,68.08,0,0,0,1.09-7.06,6.92,6.92,0,0,0-2.39-6.41,5.4,5.4,0,0,0-4.67-1.3,14.31,14.31,0,0,0-4.68,1.52,7.58,7.58,0,0,0-3,3.15,18.32,18.32,0,0,0-1.63,4.45q-.54,2.4-.87,4.89c-.21,1.67-.4,3.15-.54,4.46q-1.31,9.12-2.06,18.35a173.86,173.86,0,0,0-.55,18.36v2.39a6.36,6.36,0,0,0,.44,2.39,7.49,7.49,0,0,0,1.85,3.91c.94,1,2.2.87,3.8-.43a10.45,10.45,0,0,0,2.6-3.7,25.23,25.23,0,0,0,1.53-4.12,134,134,0,0,0,5.21-20.32Q524.81,166.33,527,155.89Zm21.07-.43A24.19,24.19,0,0,0,546.64,145q-1.85-5-4.89-7.17-1.74-1.31-2.82.65a1.8,1.8,0,0,0,.65,2.61c1.59,1,2.83,2.9,3.7,5.65a21.06,21.06,0,0,1,.86,8.47,2.31,2.31,0,0,0,.44,1.3,1.45,1.45,0,0,0,1.3.66h.22Q548.05,157.2,548.05,155.46Z"/><path class="cls-1" d="M720.12,185.22c.14-.29.47-.83,1-1.63a11.3,11.3,0,0,1,1.52-2,2.1,2.1,0,0,1,1.41-.76c.43,0,.65.58.65,1.74a13,13,0,0,1-.54,5,42,42,0,0,1-1.85,4.78c-.72,1.6-1.45,3.12-2.17,4.56s-1.45,3-2.17,4.57q-1.74,2.82-3.59,5.54a45.55,45.55,0,0,1-4,5.1q-2.82,3.26-5.86,6.19a29.53,29.53,0,0,1-6.74,4.89,17.19,17.19,0,0,1-2.39,1.2c-.87.36-1.73.69-2.6,1a21.22,21.22,0,0,1-5.22.66,16.11,16.11,0,0,1-12.82-5,33.71,33.71,0,0,1-8-14.34,68.87,68.87,0,0,1-2.38-16.29A112.52,112.52,0,0,1,666,164.58a34.23,34.23,0,0,0,.55-5.32,4.93,4.93,0,0,0-2.28-4.67q-3.48-2-6.2,0a16.17,16.17,0,0,0-4.78,6.19,50.51,50.51,0,0,0-3.47,10q-1.43,5.76-2.39,11.19c-.66,3.63-1.2,6.92-1.63,9.89s-.73,5-.87,6c-.44,2.76-.76,5.54-1,8.37A14.49,14.49,0,0,1,641,213.9a8.24,8.24,0,0,1-2.39,2,16.38,16.38,0,0,1-3.26,1.41,9.07,9.07,0,0,1-3.37.43,5.79,5.79,0,0,1-2.93-1,11.23,11.23,0,0,1-5.22-7.71,32.65,32.65,0,0,1-.1-10.32,68.5,68.5,0,0,1,2.39-10.75c1.08-3.55,1.91-6.55,2.49-9,.44-1.74.87-3.69,1.31-5.86a41.52,41.52,0,0,0,.76-6.52,31.8,31.8,0,0,0-.44-6.41,17.15,17.15,0,0,0-2.06-5.76,6,6,0,0,0-3.48-2.61,7.35,7.35,0,0,0-3.91.22,12.13,12.13,0,0,0-3.8,2.17,13.8,13.8,0,0,0-2.93,3.26,39.74,39.74,0,0,0-5.76,12.5q-1.64,6.41-3.8,13.36-1.53,4.56-2.83,9.23c-.86,3.12-1.81,6.27-2.82,9.45-.58,2-1.19,4.27-1.85,6.74a65.71,65.71,0,0,1-2.39,7.27,28.11,28.11,0,0,1-3.58,6.52,12.39,12.39,0,0,1-5.43,4.24,12.6,12.6,0,0,1-7.06.65,8.27,8.27,0,0,1-6-3.69,11.56,11.56,0,0,1-2.17-6.85,60.47,60.47,0,0,1,.43-7.27q1.1-7,1.74-14t1.52-14q1.1-8.47,1.85-17.06a151.64,151.64,0,0,1,2.5-17.05,44.36,44.36,0,0,1,3.58-10.86,17.19,17.19,0,0,1,8.15-8c.87-.44,2.13-1,3.8-1.63a18.36,18.36,0,0,1,5.11-1.2,10.83,10.83,0,0,1,4.67.55q2.06.77,2.5,3.58c0,.58,0,1.38-.11,2.39s-.11,2-.11,3a13.45,13.45,0,0,0,.32,2.94A2.39,2.39,0,0,0,607.8,140a2.54,2.54,0,0,0,3.37-.43,21.17,21.17,0,0,0,2.71-3,19.54,19.54,0,0,1,9.13-6.09,23,23,0,0,1,10.75-.87,22.54,22.54,0,0,1,9.78,4.13,18.17,18.17,0,0,1,6.41,8.69c.86-1.16,1.73-2.24,2.6-3.26a19.16,19.16,0,0,1,3-2.82,28.46,28.46,0,0,1,8.15-5.43,18.39,18.39,0,0,1,9.23-1.52,21.68,21.68,0,0,1,11.52,3.69,18.87,18.87,0,0,1,7.39,9.34,37.85,37.85,0,0,1,2.06,17.17q-1,8.68-2.06,17.38c-.3,2.31-.62,5-1,7.93a44.79,44.79,0,0,0-.22,8.8,31.23,31.23,0,0,0,1.74,8.25,12.68,12.68,0,0,0,4.89,6.3c2.17,1.6,4.23,2,6.19,1.31a13.64,13.64,0,0,0,5.32-3.7,27.64,27.64,0,0,0,4.13-6q1.74-3.37,2.83-5.76,1.08-2.17,2.17-4.35T720.12,185.22Zm-141.87,35.2a2.5,2.5,0,0,0,2.83-2.83c0-1.73-1-2.6-2.83-2.6s-2.82.87-2.82,2.6A2.5,2.5,0,0,0,578.25,220.42Zm67.35-73a11.93,11.93,0,0,0-3.48-9.78,15.6,15.6,0,0,0-4.56-3.15,13.5,13.5,0,0,0-5.65-1.19h-.21a2,2,0,1,0,0,3.91,9.52,9.52,0,0,1,7.6,3.26,7.86,7.86,0,0,1,2.39,6.73,2,2,0,0,0,1.74,2.17h.21A1.73,1.73,0,0,0,645.6,147.42Zm39.32,2a1.73,1.73,0,0,0,2-2,12.29,12.29,0,0,0-3.26-9.78A14.51,14.51,0,0,0,673,133.3a1.72,1.72,0,0,0-2,1.95,2.12,2.12,0,0,0,2.17,2,10.41,10.41,0,0,1,7.61,3.26A9.26,9.26,0,0,1,683,147.2,2.11,2.11,0,0,0,684.92,149.37ZM696,214.12c.44,0,.8-.29,1.09-.87a1,1,0,0,0-.87-1.09q-5-.87-8.26-9.34a1.46,1.46,0,0,0-1.3-.65.85.85,0,0,0-.43,1.3,34,34,0,0,0,3.15,6.41,9.21,9.21,0,0,0,6.41,4.24Z"/><path class="cls-1" d="M881.76,184.35a20.37,20.37,0,0,1,1.74,8.37,16.81,16.81,0,0,1-1.74,7.82,9.81,9.81,0,0,1-5.43,4.78q-3.71,1.41-9.13-.76A33.4,33.4,0,0,1,860,201q-3.48-2.28-6.73-4.89t-6.63-5.21q-3.37-2.61-6.84-4.78a27.17,27.17,0,0,0-15.43-4.89,25.8,25.8,0,0,0-15,5.33,36.39,36.39,0,0,0-7.17,6.95q-3,3.9-5.87,7.93t-5.75,8.15a39,39,0,0,1-6.85,7.38,40.61,40.61,0,0,1-10.42,6.95,39.35,39.35,0,0,1-11.63,3.37,34.87,34.87,0,0,1-12-.54,30.57,30.57,0,0,1-11.4-5.22,37.8,37.8,0,0,1-12.6-15.2A50.23,50.23,0,0,1,721,187.18a65.61,65.61,0,0,1,3-21.62,64.11,64.11,0,0,1,10.32-20.64,43.76,43.76,0,0,1,16.73-13.58q9.88-4.56,22.7-.43a26.28,26.28,0,0,1,7,3.47,17.58,17.58,0,0,1,4.89,5.22,17.82,17.82,0,0,1,2.39,6.73,16.33,16.33,0,0,1-.76,7.61,29,29,0,0,1-3.91,8.14,37.31,37.31,0,0,1-6.19,7,32.27,32.27,0,0,1-7.82,5.1,26.66,26.66,0,0,1-8.58,2.39,22.81,22.81,0,0,1-9.35-.65A70.48,70.48,0,0,0,753,186.63,54.19,54.19,0,0,0,756.62,197a14.54,14.54,0,0,0,6.84,6.41,20.33,20.33,0,0,0,8.8,1.74,22.47,22.47,0,0,0,9-2.17,26.82,26.82,0,0,0,7.71-5.32,80.85,80.85,0,0,0,7.17-8.69q3.26-4.57,6.62-9.13a93.58,93.58,0,0,1,7.17-8.58,40.26,40.26,0,0,1,9-7.06,41,41,0,0,1,17.38-4.89,49.63,49.63,0,0,1,34.22,11A40,40,0,0,1,881.76,184.35ZM751.19,157.41q-1.76,6.32,1.52,8.48a2.67,2.67,0,0,0,3,.65,11.61,11.61,0,0,0,3.47-2.17,33.44,33.44,0,0,0,3.15-3.15,21.32,21.32,0,0,0,2.07-2.72c.58-.87,1.23-2,1.95-3.26a34.89,34.89,0,0,0,2-4.13,16,16,0,0,0,1.09-4.34,8.58,8.58,0,0,0-.44-3.91q-1.31-3-4.24-2.83a8,8,0,0,0-4.88,2,19.32,19.32,0,0,0-5.76,7.06A35.4,35.4,0,0,0,751.19,157.41Zm26.5,53.45a1.1,1.1,0,0,0,.44-1.3c-.3-.73-.73-.95-1.31-.66q-7.61,3.91-13.9-1.08c-.29-.29-.65-.22-1.09.21s-.36.95.22,1.53a6.13,6.13,0,0,0,3.69,1.95,17.57,17.57,0,0,0,5,.65A20.89,20.89,0,0,0,777.69,210.86Zm-.87-73c-.58.58-.87,1-.87,1.3a1.54,1.54,0,0,0,.87,1.52,5.6,5.6,0,0,1,1.63,2.07c.36.8.76,1.77,1.2,2.93a7.87,7.87,0,0,1-.66,6.08,2.15,2.15,0,0,0,.44,2.83,3.68,3.68,0,0,0,1.09.43,2.51,2.51,0,0,0,1.73-.87,10.14,10.14,0,0,0,1.31-8.69,20.92,20.92,0,0,0-4.35-7.82C778.63,136.77,777.83,136.85,776.82,137.86ZM859,171.75a3.57,3.57,0,0,0,.43-1.52,2.46,2.46,0,0,0-.87-1.3,2.52,2.52,0,0,0-1.74-.44,1.55,1.55,0,0,1-.43.33,2.86,2.86,0,0,0-.65.54,2.62,2.62,0,0,0-.22,1.74c0,.29.29.73.87,1.3A2.12,2.12,0,0,0,859,171.75Zm17.59,21.08a2,2,0,0,0,1.31-1,1.67,1.67,0,0,0,.21-1.41,18.89,18.89,0,0,0-2.28-5.54,36.31,36.31,0,0,0-3.58-5,34.31,34.31,0,0,0-3.91-3.91,26.89,26.89,0,0,0-3-2.28c-1.17-.58-2-.36-2.39.65a1.57,1.57,0,0,0-.33,1.63,2.62,2.62,0,0,0,1,1.19c.57.44,1.37,1.13,2.39,2.07s2.1,2,3.26,3.26a26.82,26.82,0,0,1,3.15,4.12,13.68,13.68,0,0,1,1.84,4.46,1.78,1.78,0,0,0,2,1.74Z"/></g></g></svg>